# ProBuilder 4.5.0
# https://unity3d.com/unity/features/worldbuilding/probuilder
# 5.06.2021 00:57:29

mtllib ./DetectorLight.mtl
o DetectorLight

g DetectorLigh
v 0.125 -0.5 0.453125
v -0.125 -0.5 0.453125
v -0.125 0.28125 0.453125
v 0.125 0.28125 0.453125
v -0.125 0.28125 -0.453125
v -0.125 -0.5 -0.453125
v 0.125 -0.5 -0.453125
v 0.125 0.28125 -0.453125
v -0.125 0.5 0.234375
v 0.125 0.5 0.234375
v -0.125 0.5 -0.234375
v 0.125 0.5 -0.234375

vt 0.125 -0.5
vt -0.125 -0.5
vt -0.125 0.28125
vt 0.125 0.28125
vt 0.453125 0.28125
vt -0.34375 0.59375
vt 0.125 0.71875
vt 0.125 -0.03125
vt 0.03025 -0.03125
vt 0.453125 -0.5
vt -0.453125 -0.5
vt -0.234375 0.5
vt 0.234375 0.5
vt -0.453125 0.28125
vt 0.125 -0.40625
vt 0.03025 -0.40625
vt 0.125 -0.78125
vt 0.34375 0.59375
vt -0.125 -0.453125
vt -0.125 0.453125
vt 0.125 0.453125
vt 0.125 -0.453125

vn 0 0 1
vn 0 0 -1
vn -1 0 0
vn 0 0.7071068 0.7071068
vn 0 1 0
vn 0 0.7071068 -0.7071068
vn 0 -1 0
vn 1 0 0

usemtl glow_Red
f 11/12/3 6/11/3 2/10/3
f 11/12/3 2/10/3 9/13/3
f 5/14/3 6/11/3 11/12/3
f 9/13/3 2/10/3 3/5/3
f 10/12/8 8/5/8 12/13/8
f 4/14/8 8/5/8 10/12/8
f 1/11/8 8/5/8 4/14/8
f 1/11/8 7/10/8 8/5/8
f 3/3/1 2/2/1 1/1/1
f 1/1/1 4/4/1 3/3/1
f 6/1/2 5/4/2 8/3/2
f 8/3/2 7/2/2 6/1/2
f 10/9/4 9/8/4 3/7/4
f 3/7/4 4/6/4 10/9/4
f 12/16/5 11/15/5 9/8/5
f 9/8/5 10/9/5 12/16/5
f 8/18/6 5/17/6 11/15/6
f 11/15/6 12/16/6 8/18/6
f 1/21/7 2/20/7 6/19/7
f 6/19/7 7/22/7 1/21/7

